grf
version=1
nRows=15
nColumns=28
inDegrees=yes
endheader
time	ground_force_1_vx	ground_force_1_vy	ground_force_1_vz	ground_force_1_px	ground_force_1_py	ground_force_1_pz	ground_moment_1_mx	ground_moment_1_my	ground_moment_1_mz	ground_force_2_vx	ground_force_2_vy	ground_force_2_vz	ground_force_2_px	ground_force_2_py	ground_force_2_pz	ground_moment_2_mx	ground_moment_2_my	ground_moment_2_mz	ground_force_3_vx	ground_force_3_vy	ground_force_3_vz	ground_force_3_px	ground_force_3_py	ground_force_3_pz	ground_moment_3_mx	ground_moment_3_my	ground_moment_3_mz
0.000000	0.000000	0.000000	0.000000	0.158384	0.000000	0.398398	0.000000	0.000000	0.000000	0.000000	0.000000	0.000000	-0.277350	0.000000	0.218753	0.000000	0.000000	0.000000	0.000000	0.000000	0.000000	-1.398522	0.000000	0.512320	0.000000	0.000000	0.000000
0.000833	0.000000	0.000000	0.000000	0.297750	0.000000	0.376557	0.000000	0.000000	0.000000	0.000000	0.000000	0.000000	-0.184749	0.000000	0.034118	0.000000	0.000000	0.000000	0.000000	0.000000	0.000000	-0.725633	0.000000	0.338446	0.000000	0.000000	0.000000
0.001667	0.000000	0.000000	0.000000	0.258988	0.000000	0.431482	0.000000	0.000000	0.000000	0.000000	0.000000	0.000000	-0.222877	0.000000	0.063430	0.000000	0.000000	0.000000	0.000000	0.000000	0.000000	-0.728560	0.000000	0.184514	0.000000	0.000000	0.000000
0.002500	0.000000	0.000000	0.000000	-0.240442	0.000000	1.507944	0.000000	0.000000	0.000000	0.000000	0.000000	0.000000	0.676014	0.000000	2.267874	0.000000	0.000000	0.000000	0.000000	0.000000	0.000000	0.492007	0.000000	0.499975	0.000000	0.000000	0.000000
0.003333	0.000000	0.000000	0.000000	-0.075362	0.000000	0.522229	0.000000	0.000000	0.000000	0.000000	0.000000	0.000000	-0.346008	0.000000	0.112016	0.000000	0.000000	0.000000	0.000000	0.000000	0.000000	-0.884441	0.000000	0.387248	0.000000	0.000000	0.000000
0.004167	0.000000	0.000000	0.000000	0.258432	0.000000	0.386568	0.000000	0.000000	0.000000	0.000000	0.000000	0.000000	-0.348068	0.000000	0.175158	0.000000	0.000000	0.000000	0.000000	0.000000	0.000000	-1.084136	0.000000	0.521716	0.000000	0.000000	0.000000
0.005000	0.000000	0.000000	0.000000	-0.095208	0.000000	0.033963	0.000000	0.000000	0.000000	0.000000	0.000000	0.000000	-0.242465	0.000000	0.345220	0.000000	0.000000	0.000000	0.000000	0.000000	0.000000	-0.840085	0.000000	0.155249	0.000000	0.000000	0.000000
0.005833	0.000000	0.000000	0.000000	0.239108	0.000000	0.256467	0.000000	0.000000	0.000000	0.000000	0.000000	0.000000	-0.362960	-0.000000	-0.210544	0.000000	0.000000	0.000000	0.000000	0.000000	0.000000	-0.895985	0.000000	0.159124	0.000000	0.000000	0.000000
0.006667	0.000000	0.000000	0.000000	0.209762	0.000000	0.403578	0.000000	0.000000	0.000000	0.000000	0.000000	0.000000	-0.286272	0.000000	0.303886	0.000000	0.000000	0.000000	0.000000	0.000000	0.000000	-0.988410	-0.000000	-0.171150	0.000000	0.000000	0.000000
0.007500	0.000000	0.000000	0.000000	0.277572	0.000000	0.239991	0.000000	0.000000	0.000000	0.000000	0.000000	0.000000	-0.197504	0.000000	0.381517	0.000000	0.000000	0.000000	0.000000	0.000000	0.000000	0.450760	0.000000	2.043946	0.000000	0.000000	0.000000
0.008333	0.000000	0.000000	0.000000	0.145924	0.000000	0.028686	0.000000	0.000000	0.000000	0.000000	0.000000	0.000000	-0.030117	0.000000	0.576918	0.000000	0.000000	0.000000	0.000000	0.000000	0.000000	-0.290811	0.000000	0.260559	0.000000	0.000000	0.000000
0.009167	0.000000	0.000000	0.000000	0.046379	0.000000	1.561914	0.000000	0.000000	0.000000	0.000000	0.000000	0.000000	0.025563	0.000000	0.463448	0.000000	0.000000	0.000000	0.000000	0.000000	0.000000	-0.243756	0.000000	0.123739	0.000000	0.000000	0.000000
0.010000	0.000000	0.000000	0.000000	-0.146424	0.000000	0.144186	0.000000	0.000000	0.000000	0.000000	0.000000	0.000000	-0.356133	0.000000	0.063325	0.000000	0.000000	0.000000	0.000000	0.000000	0.000000	-0.892700	0.000000	0.398580	0.000000	0.000000	0.000000
0.010833	0.000000	0.000000	0.000000	-0.048169	0.000000	0.318145	0.000000	0.000000	0.000000	0.000000	0.000000	0.000000	-0.238019	0.000000	0.255604	0.000000	0.000000	0.000000	0.000000	0.000000	0.000000	-1.523311	0.000000	0.629631	0.000000	0.000000	0.000000
0.011667	0.000000	0.000000	0.000000	0.833168	0.000000	0.246380	0.000000	0.000000	0.000000	0.000000	0.000000	0.000000	-0.336145	0.000000	0.210400	0.000000	0.000000	0.000000	0.000000	0.000000	0.000000	-0.670258	-0.000000	-1.128579	0.000000	0.000000	0.000000
